<svg id="Camada_1" data-name="Camada 1" xmlns="http://www.w3.org/2000/svg" viewBox="0 0 255.58 287.25"><defs><style>.cls-1{fill:#c76502;}.cls-2{fill:#703907;}.cls-3{fill:#a8520c;}.cls-4{fill:#fff;}</style></defs><title>c-sharp</title><path class="cls-1" d="M255.57,84.45a25.42,25.42,0,0,0-3.12-12.76,24.52,24.52,0,0,0-9.25-9q-51-29.43-102.1-58.81c-9.17-5.3-18.06-5.1-27.16.27C100.39,12.12,32.59,51,12.39,62.67,4.06,67.49,0,74.86,0,84.44q0,59.19,0,118.37a25.45,25.45,0,0,0,3,12.52,24.32,24.32,0,0,0,9.38,9.25c20.21,11.7,88,50.55,101.56,58.54,9.11,5.37,18,5.56,27.17.26q51-29.46,102.11-58.81a24.42,24.42,0,0,0,9.39-9.25,25.56,25.56,0,0,0,3-12.52s0-78.89,0-118.35" transform="translate(0 0)"/><path class="cls-2" d="M128.18,143.24,3,215.33a24.32,24.32,0,0,0,9.38,9.25c20.21,11.7,88,50.55,101.56,58.54,9.11,5.37,18,5.56,27.17.26q51-29.46,102.11-58.81a24.42,24.42,0,0,0,9.39-9.25L128.18,143.24" transform="translate(0 0)"/><path class="cls-3" d="M255.57,84.45a25.42,25.42,0,0,0-3.12-12.76L128.18,143.24,252.6,215.32a25.56,25.56,0,0,0,3-12.52s0-78.89,0-118.35" transform="translate(0 0)"/><path class="cls-4" d="M201.89,116.29v13.48h13.48V116.29h6.73v13.48h13.48v6.73H222.1V150h13.48v6.74H222.1v13.47h-6.73V156.72H201.89v13.47h-6.73V156.72H181.68V150h13.48V136.5H181.68v-6.73h13.48V116.29Zm13.48,20.21H201.89V150h13.48Z" transform="translate(0 0)"/><path class="cls-4" d="M128.46,48.63a95,95,0,0,1,82.26,47.45l-.16-.27-41.35,23.81A47.29,47.29,0,0,0,129,96.32h-.54a47.31,47.31,0,1,0,41.22,70.5l-.2.35,41.29,23.91a95,95,0,0,1-81.26,47.54h-1a95,95,0,0,1,0-190Z" transform="translate(0 0)"/></svg>