<svg xmlns="http://www.w3.org/2000/svg" viewBox="0 0 3000 3000"><defs><style>.cls-1{fill:#c76502;}</style></defs><title>newLogo</title><g id="Camada_3" data-name="Camada 3"><g id="Camada_2" data-name="Camada 2"><path class="cls-1" d="M185.45,212.81h0A316.39,316.39,0,0,1,501.84,529.2V2783.51a0,0,0,0,1,0,0h0a316.39,316.39,0,0,1-316.39-316.39V212.81a0,0,0,0,1,0,0Z" transform="translate(185.14 -30.71) rotate(7)"/><path class="cls-1" d="M976.43,1201.54h0a316.39,316.39,0,0,1,316.39,316.39V2783.51a0,0,0,0,1,0,0h0a316.39,316.39,0,0,1-316.39-316.39V1201.54a0,0,0,0,1,0,0Z" transform="translate(251.28 -123.42) rotate(7)"/><path class="cls-1" d="M1767.42,1201.54h0a316.39,316.39,0,0,1,316.39,316.39V2783.51a0,0,0,0,1,0,0h0a316.39,316.39,0,0,1-316.39-316.39V1201.54a0,0,0,0,1,0,0Z" transform="translate(257.18 -219.82) rotate(7)"/><path class="cls-1" d="M2558.4,1201.54h0a316.39,316.39,0,0,1,316.39,316.39V2783.51a0,0,0,0,1,0,0h0a316.39,316.39,0,0,1-316.39-316.39V1201.54a0,0,0,0,1,0,0Z" transform="translate(263.08 -316.22) rotate(7)"/></g></g></svg>