<svg id="Camada_1" data-name="Camada 1" xmlns="http://www.w3.org/2000/svg" xmlns:xlink="http://www.w3.org/1999/xlink" viewBox="0 0 54 32.4"><defs><style>.cls-1{fill:none;}.cls-2{clip-path:url(#clip-path);}.cls-3{fill:#c76502;fill-rule:evenodd;}</style><clipPath id="clip-path" transform="translate(0 -0.53)"><rect class="cls-1" y="0.53" width="54" height="32.4"/></clipPath></defs><title>tailwindcss</title><g class="cls-2"><path class="cls-3" d="M27,.53q-10.8,0-13.5,10.8,4-5.4,9.45-4c2.05.51,3.52,2,5.15,3.65,2.64,2.69,5.71,5.8,12.4,5.8q10.8,0,13.5-10.8-4.05,5.4-9.45,4.05c-2-.51-3.52-2-5.15-3.65C36.76,3.64,33.69.53,27,.53ZM13.5,16.73Q2.7,16.73,0,27.53q4.05-5.4,9.45-4.05c2.05.51,3.52,2,5.15,3.65,2.64,2.69,5.71,5.8,12.4,5.8q10.8,0,13.5-10.8-4.05,5.4-9.45,4.05c-2.05-.51-3.52-2-5.15-3.65C23.26,19.84,20.19,16.73,13.5,16.73Z" transform="translate(0 -0.53)"/></g></svg>